name C:\Users\u0101727\Documents\MyRepositories\upper-imu-dc\Results\main_tracking\Case_14\kinematics.mot
datacolumns 10
datarows 42
range 4.55000000 4.96000000
endheader 
time	clav_prot	clav_elev	scapula_abduction	scapula_elevation	scapula_upward_rot	scapula_winging	plane_elv	shoulder_elv	axial_rot	
          4.55000000	        -34.42654700	          5.58248286	        -12.95128145	         -3.66209929	         44.89829121	         -6.50329454	         -4.13932056	         60.17967708	          5.34109704	
          4.56000000	        -34.51729190	          5.66953533	        -12.92378719	         -3.63511998	         45.15734505	         -6.59719543	         -4.02040913	         60.41930883	          5.34750366	
          4.57000000	        -34.61023074	          5.75493367	        -12.90473694	         -3.60841725	         45.40942179	         -6.69016110	         -3.89015091	         60.65677740	          5.34754578	
          4.58000000	        -34.70449835	          5.83848499	        -12.89184784	         -3.58218611	         45.65551678	         -6.78202256	         -3.75062865	         60.89283822	          5.34073426	
          4.59000000	        -34.79904688	          5.92037739	        -12.88237897	         -3.55637029	         45.89698082	         -6.87268176	         -3.60464324	         61.12810885	          5.32794166	
          4.60000000	        -34.89272618	          6.00105488	        -12.87329185	         -3.53074566	         46.13543296	         -6.96208749	         -3.45551175	         61.36306964	          5.31169657	
          4.61000000	        -34.98437468	          6.08098139	        -12.86141090	         -3.50507931	         46.37264619	         -7.05018422	         -3.30683017	         61.59815644	          5.29595318	
          4.62000000	        -35.07294487	          6.16042536	        -12.84370004	         -3.47927127	         46.61036782	         -7.13687488	         -3.16211019	         61.83384290	          5.28536097	
          4.63000000	        -35.15766607	          6.23935922	        -12.81769803	         -3.45341337	         46.85006826	         -7.22202471	         -3.02426847	         62.07064093	          5.28421083	
          4.64000000	        -35.23820268	          6.31748188	        -12.78199769	         -3.42776343	         47.09267937	         -7.30550124	         -2.89509661	         62.30902331	          5.29534988	
          4.65000000	        -35.31473711	          6.39430155	        -12.73654526	         -3.40268262	         47.33842939	         -7.38721933	         -2.77493968	         62.54933363	          5.31940499	
          4.66000000	        -35.38793032	          6.46920629	        -12.68259012	         -3.37858943	         47.58685669	         -7.46716039	         -2.66274326	         62.79174395	          5.35458779	
          4.67000000	        -35.45877861	          6.54150440	        -12.62230920	         -3.35594225	         47.83700233	         -7.54536414	         -2.55642712	         63.03625450	          5.39716733	
          4.68000000	        -35.52844297	          6.61048932	        -12.55831999	         -3.33520907	         48.08769433	         -7.62192272	         -2.45336409	         63.28266070	          5.44246119	
          4.69000000	        -35.59812805	          6.67560298	        -12.49333893	         -3.31676754	         48.33779472	         -7.69701037	         -2.35072144	         63.53042074	          5.48601682	
          4.70000000	        -35.66903298	          6.73670174	        -12.43010597	         -3.30072611	         48.58630716	         -7.77094762	         -2.24556926	         63.77845570	          5.52460169	
          4.71000000	        -35.74233398	          6.79432624	        -12.37149397	         -3.28673133	         48.83232167	         -7.84425796	         -2.13484712	         64.02501725	          5.55669752	
          4.72000000	        -35.81913627	          6.84982626	        -12.32060023	         -3.27386557	         49.07485600	         -7.91766255	         -2.01537388	         64.26777472	          5.58236476	
          4.73000000	        -35.90035406	          6.90523325	        -12.28063225	         -3.26071501	         49.31269603	         -7.99198011	         -1.88405296	         64.50419073	          5.60254772	
          4.74000000	        -35.98652822	          6.96287673	        -12.25452165	         -3.24561796	         49.54433570	         -8.06794423	         -1.73830241	         64.73211491	          5.61806233	
          4.75000000	        -36.07763735	          7.02484043	        -12.24435733	         -3.22703377	         49.76805971	         -8.14598737	         -1.57659337	         64.95042297	          5.62860495	
          4.76000000	        -36.17297894	          7.09242929	        -12.25084412	         -3.20391606	         49.98214387	         -8.22606346	         -1.39889189	         65.15948139	          5.63214660	
          4.77000000	        -36.27117949	          7.16581510	        -12.27299331	         -3.17597400	         50.18510803	         -8.30757224	         -1.20681927	         65.36126504	          5.62500027	
          4.78000000	        -36.37034497	          7.24394508	        -12.30814147	         -3.14375961	         50.37595985	         -8.38941045	         -1.00346620	         65.55908362	          5.60262760	
          4.79000000	        -36.46831452	          7.32469709	        -12.35225821	         -3.10858878	         50.55439431	         -8.47013071	         -0.79293347	         65.75700746	          5.56093808	
          4.80000000	        -36.56296008	          7.40521230	        -12.40043907	         -3.07233921	         50.72093120	         -8.54816644	         -0.57973594	         65.95914825	          5.49760228	
          4.81000000	        -36.65248470	          7.48234193	        -12.44750393	         -3.03716522	         50.87696873	         -8.62208313	         -0.36817712	         66.16893362	          5.41290112	
          4.82000000	        -36.73568920	          7.55316234	        -12.48866212	         -3.00515714	         51.02472226	         -8.69082539	         -0.16174781	         66.38847195	          5.30985899	
          4.83000000	        -36.81217695	          7.61550485	        -12.52019678	         -2.97797874	         51.16702479	         -8.75392814	          0.03740678	         66.61808603	          5.19371059	
          4.84000000	        -36.88245853	          7.66841912	        -12.54006899	         -2.95653572	         51.30699871	         -8.81165387	          0.22887358	         66.85609545	          5.07097253	
          4.85000000	        -36.94791764	          7.71246918	        -12.54829854	         -2.94074484	         51.44765125	         -8.86501891	          0.41410744	         67.09891734	          4.94844819	
          4.86000000	        -37.01061872	          7.74977409	        -12.54698520	         -2.92946777	         51.59148034	         -8.91568702	          0.59622733	         67.34151295	          4.83241738	
          4.87000000	        -37.07297047	          7.78375338	        -12.53990033	         -2.92064395	         51.74018752	         -8.96573599	          0.77944885	         67.57813614	          4.72812529	
          4.88000000	        -37.13729631	          7.81860560	        -12.53169110	         -2.91161120	         51.89456176	         -9.01733086	          0.96822609	         67.80327216	          4.63954881	
          4.89000000	        -37.20538704	          7.85861130	        -12.52684981	         -2.89955681	         52.05454160	         -9.07235708	          1.16626069	         68.01261123	          4.56933391	
          4.90000000	        -37.27812156	          7.90739280	        -12.52866764	         -2.88201194	         52.21941848	         -9.13207822	          1.37558260	         68.20388237	          4.51879248	
          4.91000000	        -37.35524503	          7.96727851	        -12.53841843	         -2.85728995	         52.38812334	         -9.19688997	          1.59592418	         68.37736813	          4.48790130	
          4.92000000	        -37.43538353	          8.03891282	        -12.55500090	         -2.82477350	         52.55953227	         -9.26623976	          1.82459203	         68.53594222	          4.47531492	
          4.93000000	        -37.51632599	          8.12121109	        -12.57517046	         -2.78498065	         52.73273094	         -9.33875324	          2.05693564	         68.68456007	          4.47845035	
          4.94000000	        -37.59551282	          8.21167188	        -12.59430009	         -2.73939568	         52.90719324	         -9.41254654	          2.28730604	         68.82929582	          4.49370068	
          4.95000000	        -37.67058630	          8.30695336	        -12.60742194	         -2.69011716	         53.08284923	         -9.48563487	          2.51020519	         68.97618317	          4.51679198	
          4.96000000	        -37.73984185	          8.40354846	        -12.61023937	         -2.63942530	         53.26003370	         -9.55631784	          2.72128738	         69.13017658	          4.54324508	
